# Wavefront OBJ file automatically generated by Tiled2Unity

# Vertices (Count = 606)
v -7 -20 0
v -8 -20 0
v -8 -19 0
v -7 -19 0
v -9 -20 0
v -9 -19 0
v -10 -20 0
v -10 -19 0
v -11 -20 0
v -11 -19 0
v -12 -20 0
v -12 -19 0
v -13 -20 0
v -13 -19 0
v -14 -20 0
v -14 -19 0
v -15 -20 0
v -15 -19 0
v -16 -20 0
v -16 -19 0
v -17 -20 0
v -17 -19 0
v -18 -20 0
v -18 -19 0
v -19 -20 0
v -19 -19 0
v -20 -20 0
v -20 -19 0
v -21 -20 0
v -21 -19 0
v -22 -20 0
v -22 -19 0
v -23 -20 0
v -23 -19 0
v -24 -20 0
v -24 -19 0
v -25 -20 0
v -25 -19 0
v -26 -20 0
v -26 -19 0
v -27 -20 0
v -27 -19 0
v -28 -20 0
v -28 -19 0
v -29 -20 0
v -29 -19 0
v -30 -20 0
v -30 -19 0
v -31 -20 0
v -31 -19 0
v -32 -20 0
v -32 -19 0
v -33 -20 0
v -33 -19 0
v -34 -20 0
v -34 -19 0
v -35 -20 0
v -35 -19 0
v -36 -20 0
v -36 -19 0
v -37 -20 0
v -37 -19 0
v -38 -20 0
v -38 -19 0
v -39 -20 0
v -39 -19 0
v -40 -20 0
v -40 -19 0
v -41 -20 0
v -41 -19 0
v -42 -20 0
v -42 -19 0
v -43 -20 0
v -43 -19 0
v -44 -20 0
v -44 -19 0
v -45 -20 0
v -45 -19 0
v -46 -20 0
v -46 -19 0
v -47 -20 0
v -47 -19 0
v -48 -20 0
v -48 -19 0
v -49 -20 0
v -49 -19 0
v -50 -20 0
v -50 -19 0
v -51 -20 0
v -51 -19 0
v -7 -21 0
v -8 -21 0
v -50 -21 0
v -51 -21 0
v -7 -22 0
v -8 -22 0
v -50 -22 0
v -51 -22 0
v -7 -23 0
v -8 -23 0
v -13 -23 0
v -14 -23 0
v -14 -22 0
v -13 -22 0
v -15 -23 0
v -15 -22 0
v -16 -23 0
v -16 -22 0
v -17 -23 0
v -17 -22 0
v -18 -23 0
v -18 -22 0
v -50 -23 0
v -51 -23 0
v -7 -24 0
v -8 -24 0
v -14 -24 0
v -15 -24 0
v -16 -24 0
v -17 -24 0
v -18 -24 0
v -50 -24 0
v -51 -24 0
v -7 -25 0
v -8 -25 0
v -9 -25 0
v -9 -24 0
v -10 -25 0
v -10 -24 0
v -15 -25 0
v -16 -25 0
v -17 -25 0
v -18 -25 0
v -19 -25 0
v -19 -24 0
v -20 -25 0
v -20 -24 0
v -21 -25 0
v -21 -24 0
v -22 -25 0
v -22 -24 0
v -23 -25 0
v -23 -24 0
v -50 -25 0
v -51 -25 0
v -7 -26 0
v -8 -26 0
v -9 -26 0
v -10 -26 0
v -11 -26 0
v -11 -25 0
v -22 -26 0
v -23 -26 0
v -50 -26 0
v -51 -26 0
v -7 -27 0
v -8 -27 0
v -9 -27 0
v -10 -27 0
v -11 -27 0
v -12 -27 0
v -12 -26 0
v -22 -27 0
v -23 -27 0
v -50 -27 0
v -51 -27 0
v -7 -28 0
v -8 -28 0
v -9 -28 0
v -10 -28 0
v -11 -28 0
v -12 -28 0
v -13 -28 0
v -13 -27 0
v -14 -28 0
v -14 -27 0
v -22 -28 0
v -23 -28 0
v -50 -28 0
v -51 -28 0
v -7 -29 0
v -8 -29 0
v -22 -29 0
v -23 -29 0
v -50 -29 0
v -51 -29 0
v -7 -30 0
v -8 -30 0
v -16 -30 0
v -17 -30 0
v -17 -29 0
v -16 -29 0
v -18 -30 0
v -18 -29 0
v -19 -30 0
v -19 -29 0
v -20 -30 0
v -20 -29 0
v -21 -30 0
v -21 -29 0
v -22 -30 0
v -23 -30 0
v -50 -30 0
v -51 -30 0
v -7 -31 0
v -8 -31 0
v -14 -31 0
v -15 -31 0
v -15 -30 0
v -14 -30 0
v -16 -31 0
v -17 -31 0
v -22 -31 0
v -23 -31 0
v -50 -31 0
v -51 -31 0
v -7 -32 0
v -8 -32 0
v -22 -32 0
v -23 -32 0
v -50 -32 0
v -51 -32 0
v -7 -33 0
v -8 -33 0
v -22 -33 0
v -23 -33 0
v -24 -33 0
v -24 -32 0
v -25 -33 0
v -25 -32 0
v -26 -33 0
v -26 -32 0
v -27 -33 0
v -27 -32 0
v -28 -33 0
v -28 -32 0
v -29 -33 0
v -29 -32 0
v -30 -33 0
v -30 -32 0
v -31 -33 0
v -31 -32 0
v -32 -33 0
v -32 -32 0
v -33 -33 0
v -33 -32 0
v -34 -33 0
v -34 -32 0
v -35 -33 0
v -35 -32 0
v -36 -33 0
v -36 -32 0
v -37 -33 0
v -37 -32 0
v -38 -33 0
v -38 -32 0
v -39 -33 0
v -39 -32 0
v -40 -33 0
v -40 -32 0
v -41 -33 0
v -41 -32 0
v -42 -33 0
v -42 -32 0
v -43 -33 0
v -43 -32 0
v -44 -33 0
v -44 -32 0
v -50 -33 0
v -51 -33 0
v -7 -34 0
v -8 -34 0
v -12 -34 0
v -13 -34 0
v -13 -33 0
v -12 -33 0
v -14 -34 0
v -14 -33 0
v -15 -34 0
v -15 -33 0
v -16 -34 0
v -16 -33 0
v -43 -34 0
v -44 -34 0
v -50 -34 0
v -51 -34 0
v -7 -35 0
v -8 -35 0
v -43 -35 0
v -44 -35 0
v -50 -35 0
v -51 -35 0
v -7 -36 0
v -8 -36 0
v -43 -36 0
v -44 -36 0
v -50 -36 0
v -51 -36 0
v -7 -37 0
v -8 -37 0
v -9 -37 0
v -9 -36 0
v -10 -37 0
v -10 -36 0
v -11 -37 0
v -11 -36 0
v -12 -37 0
v -12 -36 0
v -13 -37 0
v -13 -36 0
v -14 -37 0
v -14 -36 0
v -15 -37 0
v -15 -36 0
v -16 -37 0
v -16 -36 0
v -17 -37 0
v -17 -36 0
v -18 -37 0
v -18 -36 0
v -19 -37 0
v -19 -36 0
v -20 -37 0
v -20 -36 0
v -21 -37 0
v -21 -36 0
v -22 -37 0
v -22 -36 0
v -23 -37 0
v -23 -36 0
v -43 -37 0
v -44 -37 0
v -50 -37 0
v -51 -37 0
v -7 -38 0
v -8 -38 0
v -9 -38 0
v -10 -38 0
v -11 -38 0
v -12 -38 0
v -13 -38 0
v -14 -38 0
v -15 -38 0
v -16 -38 0
v -17 -38 0
v -18 -38 0
v -19 -38 0
v -20 -38 0
v -21 -38 0
v -22 -38 0
v -23 -38 0
v -43 -38 0
v -44 -38 0
v -50 -38 0
v -51 -38 0
v -7 -39 0
v -8 -39 0
v -9 -39 0
v -10 -39 0
v -11 -39 0
v -12 -39 0
v -13 -39 0
v -14 -39 0
v -15 -39 0
v -16 -39 0
v -17 -39 0
v -18 -39 0
v -19 -39 0
v -20 -39 0
v -21 -39 0
v -22 -39 0
v -23 -39 0
v -24 -39 0
v -24 -38 0
v -25 -39 0
v -25 -38 0
v -26 -39 0
v -26 -38 0
v -50 -39 0
v -51 -39 0
v -7 -40 0
v -8 -40 0
v -9 -40 0
v -10 -40 0
v -11 -40 0
v -12 -40 0
v -13 -40 0
v -14 -40 0
v -15 -40 0
v -16 -40 0
v -17 -40 0
v -18 -40 0
v -19 -40 0
v -20 -40 0
v -21 -40 0
v -22 -40 0
v -23 -40 0
v -50 -40 0
v -51 -40 0
v -22 -41 0
v -23 -41 0
v -50 -41 0
v -51 -41 0
v -22 -42 0
v -23 -42 0
v -24 -42 0
v -24 -41 0
v -25 -42 0
v -25 -41 0
v -26 -42 0
v -26 -41 0
v -27 -42 0
v -27 -41 0
v -28 -42 0
v -28 -41 0
v -29 -42 0
v -29 -41 0
v -30 -42 0
v -30 -41 0
v -31 -42 0
v -31 -41 0
v -32 -42 0
v -32 -41 0
v -33 -42 0
v -33 -41 0
v -34 -42 0
v -34 -41 0
v -35 -42 0
v -35 -41 0
v -36 -42 0
v -36 -41 0
v -37 -42 0
v -37 -41 0
v -38 -42 0
v -38 -41 0
v -39 -42 0
v -39 -41 0
v -40 -42 0
v -40 -41 0
v -41 -42 0
v -41 -41 0
v -42 -42 0
v -42 -41 0
v -43 -42 0
v -43 -41 0
v -44 -42 0
v -44 -41 0
v -45 -42 0
v -45 -41 0
v -46 -42 0
v -46 -41 0
v -47 -42 0
v -47 -41 0
v -48 -42 0
v -48 -41 0
v -49 -42 0
v -49 -41 0
v -50 -42 0
v -51 -42 0
v -22 -43 0
v -23 -43 0
v -24 -43 0
v -25 -43 0
v -26 -43 0
v -27 -43 0
v -28 -43 0
v -29 -43 0
v -30 -43 0
v -31 -43 0
v -32 -43 0
v -33 -43 0
v -34 -43 0
v -35 -43 0
v -36 -43 0
v -37 -43 0
v -38 -43 0
v -39 -43 0
v -40 -43 0
v -41 -43 0
v -42 -43 0
v -43 -43 0
v -44 -43 0
v -45 -43 0
v -46 -43 0
v -47 -43 0
v -48 -43 0
v -49 -43 0
v -50 -43 0
v -51 -43 0
v -22 -44 0
v -23 -44 0
v -24 -44 0
v -25 -44 0
v -26 -44 0
v -27 -44 0
v -28 -44 0
v -29 -44 0
v -30 -44 0
v -31 -44 0
v -32 -44 0
v -33 -44 0
v -34 -44 0
v -35 -44 0
v -36 -44 0
v -37 -44 0
v -38 -44 0
v -39 -44 0
v -40 -44 0
v -41 -44 0
v -42 -44 0
v -43 -44 0
v -44 -44 0
v -45 -44 0
v -46 -44 0
v -47 -44 0
v -48 -44 0
v -49 -44 0
v -50 -44 0
v -51 -44 0
v -22 -45 0
v -23 -45 0
v -24 -45 0
v -25 -45 0
v -26 -45 0
v -27 -45 0
v -28 -45 0
v -29 -45 0
v -30 -45 0
v -31 -45 0
v -32 -45 0
v -33 -45 0
v -34 -45 0
v -35 -45 0
v -36 -45 0
v -37 -45 0
v -38 -45 0
v -39 -45 0
v -40 -45 0
v -41 -45 0
v -42 -45 0
v -43 -45 0
v -44 -45 0
v -45 -45 0
v -46 -45 0
v -47 -45 0
v -48 -45 0
v -49 -45 0
v -50 -45 0
v -22 -46 0
v -23 -46 0
v -24 -46 0
v -25 -46 0
v -26 -46 0
v -27 -46 0
v -28 -46 0
v -29 -46 0
v -30 -46 0
v -31 -46 0
v -32 -46 0
v -33 -46 0
v -34 -46 0
v -35 -46 0
v -36 -46 0
v -37 -46 0
v -38 -46 0
v -39 -46 0
v -40 -46 0
v -41 -46 0
v -42 -46 0
v -43 -46 0
v -44 -46 0
v -45 -46 0
v -46 -46 0
v -47 -46 0
v -48 -46 0
v -49 -46 0
v -50 -46 0
v -22 -47 0
v -23 -47 0
v -24 -47 0
v -25 -47 0
v -26 -47 0
v -27 -47 0
v -28 -47 0
v -29 -47 0
v -30 -47 0
v -31 -47 0
v -32 -47 0
v -33 -47 0
v -34 -47 0
v -35 -47 0
v -36 -47 0
v -37 -47 0
v -38 -47 0
v -39 -47 0
v -40 -47 0
v -41 -47 0
v -42 -47 0
v -43 -47 0
v -44 -47 0
v -45 -47 0
v -46 -47 0
v -47 -47 0
v -48 -47 0
v -49 -47 0
v -50 -47 0

# Texture cooridinates (Count = 4)
vt 0.0001220703 0.0001220703
vt 0.9998779 0.0001220703
vt 0.9998779 0.9998779
vt 0.0001220703 0.9998779

# Normal
vn 0 0 -1

# Groups (Count = 1)

g mesh_0001
f 1/1/1 2/2/1 3/3/1 4/4/1
f 2/1/1 5/2/1 6/3/1 3/4/1
f 5/1/1 7/2/1 8/3/1 6/4/1
f 7/1/1 9/2/1 10/3/1 8/4/1
f 9/1/1 11/2/1 12/3/1 10/4/1
f 11/1/1 13/2/1 14/3/1 12/4/1
f 13/1/1 15/2/1 16/3/1 14/4/1
f 15/1/1 17/2/1 18/3/1 16/4/1
f 17/1/1 19/2/1 20/3/1 18/4/1
f 19/1/1 21/2/1 22/3/1 20/4/1
f 21/1/1 23/2/1 24/3/1 22/4/1
f 23/1/1 25/2/1 26/3/1 24/4/1
f 25/1/1 27/2/1 28/3/1 26/4/1
f 27/1/1 29/2/1 30/3/1 28/4/1
f 29/1/1 31/2/1 32/3/1 30/4/1
f 31/1/1 33/2/1 34/3/1 32/4/1
f 33/1/1 35/2/1 36/3/1 34/4/1
f 35/1/1 37/2/1 38/3/1 36/4/1
f 37/1/1 39/2/1 40/3/1 38/4/1
f 39/1/1 41/2/1 42/3/1 40/4/1
f 41/1/1 43/2/1 44/3/1 42/4/1
f 43/1/1 45/2/1 46/3/1 44/4/1
f 45/1/1 47/2/1 48/3/1 46/4/1
f 47/1/1 49/2/1 50/3/1 48/4/1
f 49/1/1 51/2/1 52/3/1 50/4/1
f 51/1/1 53/2/1 54/3/1 52/4/1
f 53/1/1 55/2/1 56/3/1 54/4/1
f 55/1/1 57/2/1 58/3/1 56/4/1
f 57/1/1 59/2/1 60/3/1 58/4/1
f 59/1/1 61/2/1 62/3/1 60/4/1
f 61/1/1 63/2/1 64/3/1 62/4/1
f 63/1/1 65/2/1 66/3/1 64/4/1
f 65/1/1 67/2/1 68/3/1 66/4/1
f 67/1/1 69/2/1 70/3/1 68/4/1
f 69/1/1 71/2/1 72/3/1 70/4/1
f 71/1/1 73/2/1 74/3/1 72/4/1
f 73/1/1 75/2/1 76/3/1 74/4/1
f 75/1/1 77/2/1 78/3/1 76/4/1
f 77/1/1 79/2/1 80/3/1 78/4/1
f 79/1/1 81/2/1 82/3/1 80/4/1
f 81/1/1 83/2/1 84/3/1 82/4/1
f 83/1/1 85/2/1 86/3/1 84/4/1
f 85/1/1 87/2/1 88/3/1 86/4/1
f 87/1/1 89/2/1 90/3/1 88/4/1
f 91/1/1 92/2/1 2/3/1 1/4/1
f 93/1/1 94/2/1 89/3/1 87/4/1
f 95/1/1 96/2/1 92/3/1 91/4/1
f 97/1/1 98/2/1 94/3/1 93/4/1
f 99/1/1 100/2/1 96/3/1 95/4/1
f 101/1/1 102/2/1 103/3/1 104/4/1
f 102/1/1 105/2/1 106/3/1 103/4/1
f 105/1/1 107/2/1 108/3/1 106/4/1
f 107/1/1 109/2/1 110/3/1 108/4/1
f 109/1/1 111/2/1 112/3/1 110/4/1
f 113/1/1 114/2/1 98/3/1 97/4/1
f 115/1/1 116/2/1 100/3/1 99/4/1
f 117/1/1 118/2/1 105/3/1 102/4/1
f 118/1/1 119/2/1 107/3/1 105/4/1
f 119/1/1 120/2/1 109/3/1 107/4/1
f 120/1/1 121/2/1 111/3/1 109/4/1
f 122/1/1 123/2/1 114/3/1 113/4/1
f 124/1/1 125/2/1 116/3/1 115/4/1
f 125/1/1 126/2/1 127/3/1 116/4/1
f 126/1/1 128/2/1 129/3/1 127/4/1
f 130/1/1 131/2/1 119/3/1 118/4/1
f 131/1/1 132/2/1 120/3/1 119/4/1
f 132/1/1 133/2/1 121/3/1 120/4/1
f 133/1/1 134/2/1 135/3/1 121/4/1
f 134/1/1 136/2/1 137/3/1 135/4/1
f 136/1/1 138/2/1 139/3/1 137/4/1
f 138/1/1 140/2/1 141/3/1 139/4/1
f 140/1/1 142/2/1 143/3/1 141/4/1
f 144/1/1 145/2/1 123/3/1 122/4/1
f 146/1/1 147/2/1 125/3/1 124/4/1
f 147/1/1 148/2/1 126/3/1 125/4/1
f 148/1/1 149/2/1 128/3/1 126/4/1
f 149/1/1 150/2/1 151/3/1 128/4/1
f 152/1/1 153/2/1 142/3/1 140/4/1
f 154/1/1 155/2/1 145/3/1 144/4/1
f 156/1/1 157/2/1 147/3/1 146/4/1
f 157/1/1 158/2/1 148/3/1 147/4/1
f 158/1/1 159/2/1 149/3/1 148/4/1
f 159/1/1 160/2/1 150/3/1 149/4/1
f 160/1/1 161/2/1 162/3/1 150/4/1
f 163/1/1 164/2/1 153/3/1 152/4/1
f 165/1/1 166/2/1 155/3/1 154/4/1
f 167/1/1 168/2/1 157/3/1 156/4/1
f 168/1/1 169/2/1 158/3/1 157/4/1
f 169/1/1 170/2/1 159/3/1 158/4/1
f 170/1/1 171/2/1 160/3/1 159/4/1
f 171/1/1 172/2/1 161/3/1 160/4/1
f 172/1/1 173/2/1 174/3/1 161/4/1
f 173/1/1 175/2/1 176/3/1 174/4/1
f 177/1/1 178/2/1 164/3/1 163/4/1
f 179/1/1 180/2/1 166/3/1 165/4/1
f 181/1/1 182/2/1 168/3/1 167/4/1
f 183/1/1 184/2/1 178/3/1 177/4/1
f 185/1/1 186/2/1 180/3/1 179/4/1
f 187/1/1 188/2/1 182/3/1 181/4/1
f 189/1/1 190/2/1 191/3/1 192/4/1
f 190/1/1 193/2/1 194/3/1 191/4/1
f 193/1/1 195/2/1 196/3/1 194/4/1
f 195/1/1 197/2/1 198/3/1 196/4/1
f 197/1/1 199/2/1 200/3/1 198/4/1
f 199/1/1 201/2/1 183/3/1 200/4/1
f 201/1/1 202/2/1 184/3/1 183/4/1
f 203/1/1 204/2/1 186/3/1 185/4/1
f 205/1/1 206/2/1 188/3/1 187/4/1
f 207/1/1 208/2/1 209/3/1 210/4/1
f 208/1/1 211/2/1 189/3/1 209/4/1
f 211/1/1 212/2/1 190/3/1 189/4/1
f 213/1/1 214/2/1 202/3/1 201/4/1
f 215/1/1 216/2/1 204/3/1 203/4/1
f 217/1/1 218/2/1 206/3/1 205/4/1
f 219/1/1 220/2/1 214/3/1 213/4/1
f 221/1/1 222/2/1 216/3/1 215/4/1
f 223/1/1 224/2/1 218/3/1 217/4/1
f 225/1/1 226/2/1 220/3/1 219/4/1
f 226/1/1 227/2/1 228/3/1 220/4/1
f 227/1/1 229/2/1 230/3/1 228/4/1
f 229/1/1 231/2/1 232/3/1 230/4/1
f 231/1/1 233/2/1 234/3/1 232/4/1
f 233/1/1 235/2/1 236/3/1 234/4/1
f 235/1/1 237/2/1 238/3/1 236/4/1
f 237/1/1 239/2/1 240/3/1 238/4/1
f 239/1/1 241/2/1 242/3/1 240/4/1
f 241/1/1 243/2/1 244/3/1 242/4/1
f 243/1/1 245/2/1 246/3/1 244/4/1
f 245/1/1 247/2/1 248/3/1 246/4/1
f 247/1/1 249/2/1 250/3/1 248/4/1
f 249/1/1 251/2/1 252/3/1 250/4/1
f 251/1/1 253/2/1 254/3/1 252/4/1
f 253/1/1 255/2/1 256/3/1 254/4/1
f 255/1/1 257/2/1 258/3/1 256/4/1
f 257/1/1 259/2/1 260/3/1 258/4/1
f 259/1/1 261/2/1 262/3/1 260/4/1
f 261/1/1 263/2/1 264/3/1 262/4/1
f 263/1/1 265/2/1 266/3/1 264/4/1
f 265/1/1 267/2/1 268/3/1 266/4/1
f 269/1/1 270/2/1 222/3/1 221/4/1
f 271/1/1 272/2/1 224/3/1 223/4/1
f 273/1/1 274/2/1 275/3/1 276/4/1
f 274/1/1 277/2/1 278/3/1 275/4/1
f 277/1/1 279/2/1 280/3/1 278/4/1
f 279/1/1 281/2/1 282/3/1 280/4/1
f 283/1/1 284/2/1 267/3/1 265/4/1
f 285/1/1 286/2/1 270/3/1 269/4/1
f 287/1/1 288/2/1 272/3/1 271/4/1
f 289/1/1 290/2/1 284/3/1 283/4/1
f 291/1/1 292/2/1 286/3/1 285/4/1
f 293/1/1 294/2/1 288/3/1 287/4/1
f 295/1/1 296/2/1 290/3/1 289/4/1
f 297/1/1 298/2/1 292/3/1 291/4/1
f 299/1/1 300/2/1 294/3/1 293/4/1
f 300/1/1 301/2/1 302/3/1 294/4/1
f 301/1/1 303/2/1 304/3/1 302/4/1
f 303/1/1 305/2/1 306/3/1 304/4/1
f 305/1/1 307/2/1 308/3/1 306/4/1
f 307/1/1 309/2/1 310/3/1 308/4/1
f 309/1/1 311/2/1 312/3/1 310/4/1
f 311/1/1 313/2/1 314/3/1 312/4/1
f 313/1/1 315/2/1 316/3/1 314/4/1
f 315/1/1 317/2/1 318/3/1 316/4/1
f 317/1/1 319/2/1 320/3/1 318/4/1
f 319/1/1 321/2/1 322/3/1 320/4/1
f 321/1/1 323/2/1 324/3/1 322/4/1
f 323/1/1 325/2/1 326/3/1 324/4/1
f 325/1/1 327/2/1 328/3/1 326/4/1
f 327/1/1 329/2/1 330/3/1 328/4/1
f 331/1/1 332/2/1 296/3/1 295/4/1
f 333/1/1 334/2/1 298/3/1 297/4/1
f 335/1/1 336/2/1 300/3/1 299/4/1
f 336/1/1 337/2/1 301/3/1 300/4/1
f 337/1/1 338/2/1 303/3/1 301/4/1
f 338/1/1 339/2/1 305/3/1 303/4/1
f 339/1/1 340/2/1 307/3/1 305/4/1
f 340/1/1 341/2/1 309/3/1 307/4/1
f 341/1/1 342/2/1 311/3/1 309/4/1
f 342/1/1 343/2/1 313/3/1 311/4/1
f 343/1/1 344/2/1 315/3/1 313/4/1
f 344/1/1 345/2/1 317/3/1 315/4/1
f 345/1/1 346/2/1 319/3/1 317/4/1
f 346/1/1 347/2/1 321/3/1 319/4/1
f 347/1/1 348/2/1 323/3/1 321/4/1
f 348/1/1 349/2/1 325/3/1 323/4/1
f 349/1/1 350/2/1 327/3/1 325/4/1
f 350/1/1 351/2/1 329/3/1 327/4/1
f 352/1/1 353/2/1 332/3/1 331/4/1
f 354/1/1 355/2/1 334/3/1 333/4/1
f 356/1/1 357/2/1 336/3/1 335/4/1
f 357/1/1 358/2/1 337/3/1 336/4/1
f 358/1/1 359/2/1 338/3/1 337/4/1
f 359/1/1 360/2/1 339/3/1 338/4/1
f 360/1/1 361/2/1 340/3/1 339/4/1
f 361/1/1 362/2/1 341/3/1 340/4/1
f 362/1/1 363/2/1 342/3/1 341/4/1
f 363/1/1 364/2/1 343/3/1 342/4/1
f 364/1/1 365/2/1 344/3/1 343/4/1
f 365/1/1 366/2/1 345/3/1 344/4/1
f 366/1/1 367/2/1 346/3/1 345/4/1
f 367/1/1 368/2/1 347/3/1 346/4/1
f 368/1/1 369/2/1 348/3/1 347/4/1
f 369/1/1 370/2/1 349/3/1 348/4/1
f 370/1/1 371/2/1 350/3/1 349/4/1
f 371/1/1 372/2/1 351/3/1 350/4/1
f 372/1/1 373/2/1 374/3/1 351/4/1
f 373/1/1 375/2/1 376/3/1 374/4/1
f 375/1/1 377/2/1 378/3/1 376/4/1
f 379/1/1 380/2/1 355/3/1 354/4/1
f 381/1/1 382/2/1 357/3/1 356/4/1
f 382/1/1 383/2/1 358/3/1 357/4/1
f 383/1/1 384/2/1 359/3/1 358/4/1
f 384/1/1 385/2/1 360/3/1 359/4/1
f 385/1/1 386/2/1 361/3/1 360/4/1
f 386/1/1 387/2/1 362/3/1 361/4/1
f 387/1/1 388/2/1 363/3/1 362/4/1
f 388/1/1 389/2/1 364/3/1 363/4/1
f 389/1/1 390/2/1 365/3/1 364/4/1
f 390/1/1 391/2/1 366/3/1 365/4/1
f 391/1/1 392/2/1 367/3/1 366/4/1
f 392/1/1 393/2/1 368/3/1 367/4/1
f 393/1/1 394/2/1 369/3/1 368/4/1
f 394/1/1 395/2/1 370/3/1 369/4/1
f 395/1/1 396/2/1 371/3/1 370/4/1
f 396/1/1 397/2/1 372/3/1 371/4/1
f 398/1/1 399/2/1 380/3/1 379/4/1
f 400/1/1 401/2/1 397/3/1 396/4/1
f 402/1/1 403/2/1 399/3/1 398/4/1
f 404/1/1 405/2/1 401/3/1 400/4/1
f 405/1/1 406/2/1 407/3/1 401/4/1
f 406/1/1 408/2/1 409/3/1 407/4/1
f 408/1/1 410/2/1 411/3/1 409/4/1
f 410/1/1 412/2/1 413/3/1 411/4/1
f 412/1/1 414/2/1 415/3/1 413/4/1
f 414/1/1 416/2/1 417/3/1 415/4/1
f 416/1/1 418/2/1 419/3/1 417/4/1
f 418/1/1 420/2/1 421/3/1 419/4/1
f 420/1/1 422/2/1 423/3/1 421/4/1
f 422/1/1 424/2/1 425/3/1 423/4/1
f 424/1/1 426/2/1 427/3/1 425/4/1
f 426/1/1 428/2/1 429/3/1 427/4/1
f 428/1/1 430/2/1 431/3/1 429/4/1
f 430/1/1 432/2/1 433/3/1 431/4/1
f 432/1/1 434/2/1 435/3/1 433/4/1
f 434/1/1 436/2/1 437/3/1 435/4/1
f 436/1/1 438/2/1 439/3/1 437/4/1
f 438/1/1 440/2/1 441/3/1 439/4/1
f 440/1/1 442/2/1 443/3/1 441/4/1
f 442/1/1 444/2/1 445/3/1 443/4/1
f 444/1/1 446/2/1 447/3/1 445/4/1
f 446/1/1 448/2/1 449/3/1 447/4/1
f 448/1/1 450/2/1 451/3/1 449/4/1
f 450/1/1 452/2/1 453/3/1 451/4/1
f 452/1/1 454/2/1 455/3/1 453/4/1
f 454/1/1 456/2/1 457/3/1 455/4/1
f 456/1/1 458/2/1 402/3/1 457/4/1
f 458/1/1 459/2/1 403/3/1 402/4/1
f 460/1/1 461/2/1 405/3/1 404/4/1
f 461/1/1 462/2/1 406/3/1 405/4/1
f 462/1/1 463/2/1 408/3/1 406/4/1
f 463/1/1 464/2/1 410/3/1 408/4/1
f 464/1/1 465/2/1 412/3/1 410/4/1
f 465/1/1 466/2/1 414/3/1 412/4/1
f 466/1/1 467/2/1 416/3/1 414/4/1
f 467/1/1 468/2/1 418/3/1 416/4/1
f 468/1/1 469/2/1 420/3/1 418/4/1
f 469/1/1 470/2/1 422/3/1 420/4/1
f 470/1/1 471/2/1 424/3/1 422/4/1
f 471/1/1 472/2/1 426/3/1 424/4/1
f 472/1/1 473/2/1 428/3/1 426/4/1
f 473/1/1 474/2/1 430/3/1 428/4/1
f 474/1/1 475/2/1 432/3/1 430/4/1
f 475/1/1 476/2/1 434/3/1 432/4/1
f 476/1/1 477/2/1 436/3/1 434/4/1
f 477/1/1 478/2/1 438/3/1 436/4/1
f 478/1/1 479/2/1 440/3/1 438/4/1
f 479/1/1 480/2/1 442/3/1 440/4/1
f 480/1/1 481/2/1 444/3/1 442/4/1
f 481/1/1 482/2/1 446/3/1 444/4/1
f 482/1/1 483/2/1 448/3/1 446/4/1
f 483/1/1 484/2/1 450/3/1 448/4/1
f 484/1/1 485/2/1 452/3/1 450/4/1
f 485/1/1 486/2/1 454/3/1 452/4/1
f 486/1/1 487/2/1 456/3/1 454/4/1
f 487/1/1 488/2/1 458/3/1 456/4/1
f 488/1/1 489/2/1 459/3/1 458/4/1
f 490/1/1 491/2/1 461/3/1 460/4/1
f 491/1/1 492/2/1 462/3/1 461/4/1
f 492/1/1 493/2/1 463/3/1 462/4/1
f 493/1/1 494/2/1 464/3/1 463/4/1
f 494/1/1 495/2/1 465/3/1 464/4/1
f 495/1/1 496/2/1 466/3/1 465/4/1
f 496/1/1 497/2/1 467/3/1 466/4/1
f 497/1/1 498/2/1 468/3/1 467/4/1
f 498/1/1 499/2/1 469/3/1 468/4/1
f 499/1/1 500/2/1 470/3/1 469/4/1
f 500/1/1 501/2/1 471/3/1 470/4/1
f 501/1/1 502/2/1 472/3/1 471/4/1
f 502/1/1 503/2/1 473/3/1 472/4/1
f 503/1/1 504/2/1 474/3/1 473/4/1
f 504/1/1 505/2/1 475/3/1 474/4/1
f 505/1/1 506/2/1 476/3/1 475/4/1
f 506/1/1 507/2/1 477/3/1 476/4/1
f 507/1/1 508/2/1 478/3/1 477/4/1
f 508/1/1 509/2/1 479/3/1 478/4/1
f 509/1/1 510/2/1 480/3/1 479/4/1
f 510/1/1 511/2/1 481/3/1 480/4/1
f 511/1/1 512/2/1 482/3/1 481/4/1
f 512/1/1 513/2/1 483/3/1 482/4/1
f 513/1/1 514/2/1 484/3/1 483/4/1
f 514/1/1 515/2/1 485/3/1 484/4/1
f 515/1/1 516/2/1 486/3/1 485/4/1
f 516/1/1 517/2/1 487/3/1 486/4/1
f 517/1/1 518/2/1 488/3/1 487/4/1
f 518/1/1 519/2/1 489/3/1 488/4/1
f 520/1/1 521/2/1 491/3/1 490/4/1
f 521/1/1 522/2/1 492/3/1 491/4/1
f 522/1/1 523/2/1 493/3/1 492/4/1
f 523/1/1 524/2/1 494/3/1 493/4/1
f 524/1/1 525/2/1 495/3/1 494/4/1
f 525/1/1 526/2/1 496/3/1 495/4/1
f 526/1/1 527/2/1 497/3/1 496/4/1
f 527/1/1 528/2/1 498/3/1 497/4/1
f 528/1/1 529/2/1 499/3/1 498/4/1
f 529/1/1 530/2/1 500/3/1 499/4/1
f 530/1/1 531/2/1 501/3/1 500/4/1
f 531/1/1 532/2/1 502/3/1 501/4/1
f 532/1/1 533/2/1 503/3/1 502/4/1
f 533/1/1 534/2/1 504/3/1 503/4/1
f 534/1/1 535/2/1 505/3/1 504/4/1
f 535/1/1 536/2/1 506/3/1 505/4/1
f 536/1/1 537/2/1 507/3/1 506/4/1
f 537/1/1 538/2/1 508/3/1 507/4/1
f 538/1/1 539/2/1 509/3/1 508/4/1
f 539/1/1 540/2/1 510/3/1 509/4/1
f 540/1/1 541/2/1 511/3/1 510/4/1
f 541/1/1 542/2/1 512/3/1 511/4/1
f 542/1/1 543/2/1 513/3/1 512/4/1
f 543/1/1 544/2/1 514/3/1 513/4/1
f 544/1/1 545/2/1 515/3/1 514/4/1
f 545/1/1 546/2/1 516/3/1 515/4/1
f 546/1/1 547/2/1 517/3/1 516/4/1
f 547/1/1 548/2/1 518/3/1 517/4/1
f 549/1/1 550/2/1 521/3/1 520/4/1
f 550/1/1 551/2/1 522/3/1 521/4/1
f 551/1/1 552/2/1 523/3/1 522/4/1
f 552/1/1 553/2/1 524/3/1 523/4/1
f 553/1/1 554/2/1 525/3/1 524/4/1
f 554/1/1 555/2/1 526/3/1 525/4/1
f 555/1/1 556/2/1 527/3/1 526/4/1
f 556/1/1 557/2/1 528/3/1 527/4/1
f 557/1/1 558/2/1 529/3/1 528/4/1
f 558/1/1 559/2/1 530/3/1 529/4/1
f 559/1/1 560/2/1 531/3/1 530/4/1
f 560/1/1 561/2/1 532/3/1 531/4/1
f 561/1/1 562/2/1 533/3/1 532/4/1
f 562/1/1 563/2/1 534/3/1 533/4/1
f 563/1/1 564/2/1 535/3/1 534/4/1
f 564/1/1 565/2/1 536/3/1 535/4/1
f 565/1/1 566/2/1 537/3/1 536/4/1
f 566/1/1 567/2/1 538/3/1 537/4/1
f 567/1/1 568/2/1 539/3/1 538/4/1
f 568/1/1 569/2/1 540/3/1 539/4/1
f 569/1/1 570/2/1 541/3/1 540/4/1
f 570/1/1 571/2/1 542/3/1 541/4/1
f 571/1/1 572/2/1 543/3/1 542/4/1
f 572/1/1 573/2/1 544/3/1 543/4/1
f 573/1/1 574/2/1 545/3/1 544/4/1
f 574/1/1 575/2/1 546/3/1 545/4/1
f 575/1/1 576/2/1 547/3/1 546/4/1
f 576/1/1 577/2/1 548/3/1 547/4/1
f 578/1/1 579/2/1 550/3/1 549/4/1
f 579/1/1 580/2/1 551/3/1 550/4/1
f 580/1/1 581/2/1 552/3/1 551/4/1
f 581/1/1 582/2/1 553/3/1 552/4/1
f 582/1/1 583/2/1 554/3/1 553/4/1
f 583/1/1 584/2/1 555/3/1 554/4/1
f 584/1/1 585/2/1 556/3/1 555/4/1
f 585/1/1 586/2/1 557/3/1 556/4/1
f 586/1/1 587/2/1 558/3/1 557/4/1
f 587/1/1 588/2/1 559/3/1 558/4/1
f 588/1/1 589/2/1 560/3/1 559/4/1
f 589/1/1 590/2/1 561/3/1 560/4/1
f 590/1/1 591/2/1 562/3/1 561/4/1
f 591/1/1 592/2/1 563/3/1 562/4/1
f 592/1/1 593/2/1 564/3/1 563/4/1
f 593/1/1 594/2/1 565/3/1 564/4/1
f 594/1/1 595/2/1 566/3/1 565/4/1
f 595/1/1 596/2/1 567/3/1 566/4/1
f 596/1/1 597/2/1 568/3/1 567/4/1
f 597/1/1 598/2/1 569/3/1 568/4/1
f 598/1/1 599/2/1 570/3/1 569/4/1
f 599/1/1 600/2/1 571/3/1 570/4/1
f 600/1/1 601/2/1 572/3/1 571/4/1
f 601/1/1 602/2/1 573/3/1 572/4/1
f 602/1/1 603/2/1 574/3/1 573/4/1
f 603/1/1 604/2/1 575/3/1 574/4/1
f 604/1/1 605/2/1 576/3/1 575/4/1
f 605/1/1 606/2/1 577/3/1 576/4/1

